<svg height="512" viewBox="0 0 64 64" width="512" xmlns="http://www.w3.org/2000/svg"><path d="m37 53a21 21 0 1 0 -21-21 21.024 21.024 0 0 0 21 21zm0-40a19 19 0 1 1 -19 19 19.021 19.021 0 0 1 19-19z"/><path d="m61 2h-58a1 1 0 0 0 -1 1v58a1 1 0 0 0 1 1h58a1 1 0 0 0 1-1v-58a1 1 0 0 0 -1-1zm-57 2h4v56h-4zm6 0h2v56h-2zm50 56h-46v-56h46z"/><path d="m49 32h2a14.015 14.015 0 0 0 -14-14v2a12.013 12.013 0 0 1 12 12z"/><path d="m37 46v-2a12.013 12.013 0 0 1 -12-12h-2a14.015 14.015 0 0 0 14 14z"/><path d="m37 42v-2a8.009 8.009 0 0 1 -8-8h-2a10.011 10.011 0 0 0 10 10z"/><path d="m45 32h2a10.011 10.011 0 0 0 -10-10v2a8.009 8.009 0 0 1 8 8z"/><path d="m37 38a6 6 0 1 0 -6-6 6.006 6.006 0 0 0 6 6zm0-10a4 4 0 1 1 -4 4 4 4 0 0 1 4-4z"/><path d="m49.586 7.586h6v2h-6z" transform="matrix(.707 -.707 .707 .707 9.331 39.698)"/><path d="m52.414 10.414h6v2h-6z" transform="matrix(.707 -.707 .707 .707 8.158 42.524)"/></svg>